<svg xmlns="http://www.w3.org/2000/svg" xmlns:xlink="http://www.w3.org/1999/xlink" width="200" zoomAndPan="magnify" viewBox="0 0 150 37.5" height="50" preserveAspectRatio="xMidYMid meet" version="1.0"><defs><g/><clipPath id="f91ef49d2e"><path d="M 0.988281 4.589844 L 19.300781 4.589844 L 19.300781 28.246094 L 0.988281 28.246094 Z M 0.988281 4.589844 " clip-rule="nonzero"/></clipPath></defs><g clip-path="url(#f91ef49d2e)"><path fill="#ff7043" d="M 19.292969 12.886719 C 19.292969 17.441406 15.222656 21.261719 10.140625 21.261719 L 7.421875 21.261719 L 7.421875 28.21875 L 0.988281 28.21875 L 6.433594 15.289062 C 6.644531 14.78125 7.421875 14.933594 7.421875 15.476562 L 10.140625 15.492188 C 11.871094 15.507812 13.085938 14.363281 13.085938 12.914062 C 13.085938 11.480469 11.855469 10.398438 10.140625 10.398438 L 7.421875 10.398438 C 7.421875 11.214844 6.351562 11.5625 5.847656 10.910156 L 0.988281 4.613281 L 10.140625 4.613281 C 15.128906 4.613281 19.292969 8.273438 19.292969 12.886719 Z M 19.292969 12.886719 " fill-opacity="1" fill-rule="nonzero"/></g><g fill="#1e2227" fill-opacity="1"><g transform="translate(20.580676, 28.957829)"><g><path d="M 20.859375 -0.265625 L 20.859375 0 L 14.40625 0 L 10.453125 -7.9375 L 7.671875 -7.9375 L 7.671875 0 L 1.640625 0 L 1.640625 -23.5 L 11.125 -23.5 C 12.945312 -23.5 14.53125 -23.222656 15.875 -22.671875 C 17.21875 -22.128906 18.257812 -21.328125 19 -20.265625 C 19.738281 -19.203125 20.109375 -17.910156 20.109375 -16.390625 C 20.109375 -14.585938 19.765625 -13.164062 19.078125 -12.125 C 18.398438 -11.082031 17.398438 -10.238281 16.078125 -9.59375 Z M 7.671875 -12.828125 L 11.125 -12.828125 C 12.101562 -12.828125 12.84375 -13.070312 13.34375 -13.5625 C 13.84375 -14.050781 14.09375 -14.769531 14.09375 -15.71875 C 14.09375 -16.644531 13.832031 -17.359375 13.3125 -17.859375 C 12.789062 -18.367188 12.0625 -18.625 11.125 -18.625 L 7.671875 -18.625 Z M 7.671875 -12.828125 "/></g></g></g><g fill="#1e2227" fill-opacity="1"><g transform="translate(42.343803, 28.957829)"><g><path d="M 21.796875 -11.3125 C 21.796875 -8.957031 21.351562 -6.898438 20.46875 -5.140625 C 19.59375 -3.378906 18.367188 -2.023438 16.796875 -1.078125 C 15.222656 -0.140625 13.429688 0.328125 11.421875 0.328125 C 9.378906 0.328125 7.566406 -0.140625 5.984375 -1.078125 C 4.410156 -2.023438 3.1875 -3.378906 2.3125 -5.140625 C 1.4375 -6.898438 1 -8.957031 1 -11.3125 L 1 -12.171875 C 1 -14.523438 1.4375 -16.582031 2.3125 -18.34375 C 3.1875 -20.101562 4.410156 -21.453125 5.984375 -22.390625 C 7.554688 -23.335938 9.359375 -23.8125 11.390625 -23.8125 C 13.398438 -23.8125 15.191406 -23.335938 16.765625 -22.390625 C 18.347656 -21.453125 19.582031 -20.101562 20.46875 -18.34375 C 21.351562 -16.582031 21.796875 -14.523438 21.796875 -12.171875 Z M 15.65625 -12.203125 C 15.65625 -14.367188 15.285156 -16.023438 14.546875 -17.171875 C 13.804688 -18.316406 12.753906 -18.890625 11.390625 -18.890625 C 8.554688 -18.890625 7.140625 -16.660156 7.140625 -12.203125 L 7.140625 -11.3125 C 7.140625 -9.132812 7.5 -7.46875 8.21875 -6.3125 C 8.9375 -5.15625 10.003906 -4.578125 11.421875 -4.578125 C 12.773438 -4.578125 13.816406 -5.160156 14.546875 -6.328125 C 15.285156 -7.492188 15.65625 -9.15625 15.65625 -11.3125 Z M 15.65625 -12.203125 "/></g></g></g><g fill="#1e2227" fill-opacity="1"><g transform="translate(65.155555, 28.957829)"><g><path d="M 14.15625 -23.5 L 21.015625 -23.5 L 14.578125 -11.84375 L 21.203125 0 L 14.265625 0 L 10.5625 -7.65625 L 6.859375 0 L -0.0625 0 L 6.546875 -11.84375 L 0.109375 -23.5 L 6.96875 -23.5 L 10.5625 -15.984375 Z M 14.15625 -23.5 "/></g></g></g><g fill="#1e2227" fill-opacity="1"><g transform="translate(86.305636, 28.957829)"><g><path d="M 2.0625 0 L 2.0625 -23.5 L 8.046875 -23.5 L 8.046875 0 Z M 2.0625 0 "/></g></g></g><g fill="#1e2227" fill-opacity="1"><g transform="translate(96.437022, 28.957829)"><g><path d="M 27.28125 0 L 21.25 0 L 21.25 -4.4375 L 21.828125 -16.375 L 16.421875 0 L 12.484375 0 L 7.078125 -16.359375 L 7.6875 -4.4375 L 7.6875 0 L 1.640625 0 L 1.640625 -23.5 L 9.5625 -23.5 L 14.453125 -7.90625 L 19.34375 -23.5 L 27.28125 -23.5 Z M 27.28125 0 "/></g></g></g><g fill="#1e2227" fill-opacity="1"><g transform="translate(125.411497, 28.957829)"><g><path d="M 15.09375 -3.890625 L 7.53125 -3.890625 L 6.34375 0 L -0.125 0 L 8.4375 -23.5 L 14.15625 -23.5 L 22.765625 0 L 16.28125 0 Z M 13.59375 -8.765625 L 11.3125 -16.1875 L 9.03125 -8.765625 Z M 13.59375 -8.765625 "/></g></g></g></svg>